# xmcd
#
# Track frame offsets:
#	150
#	16265
#	32425
#	47773
#	63973
#	80575
#	94323
#	114578
#	139348
#	162023
#	177955
#
# Disc length: 2535 seconds
#
# Revision: 1
# Processed by: cddbd v1.5.1PL0 Copyright (c) Steve Scherf et al.
# Submitted via: CDex 1.50Beta5
#
DISCID=8809e50b
DTITLE=松田樹利亜 - VIBRATE
DYEAR=1900
DGENRE=Rock
TTITLE0=BAD BLOOD
TTITLE1=Shadow Wings
TTITLE2=キバク
TTITLE3=欠落
TTITLE4=an incantation
TTITLE5=with all my love
TTITLE6=DISCOVERY
TTITLE7=SPIRIT(album version)
TTITLE8=I wish...
TTITLE9=Precious Garden
TTITLE10=大切な人
EXTD=
EXTT0=
EXTT1=
EXTT2=
EXTT3=
EXTT4=
EXTT5=
EXTT6=
EXTT7=
EXTT8=
EXTT9=
EXTT10=
PLAYORDER=
